<svg xmlns="http://www.w3.org/2000/svg" width="1200" height="630" viewBox="0 0 1200 630">
  <rect width="1200" height="630" fill="#f4f0e7"/>
  <rect x="48" y="48" width="1104" height="534" rx="40" fill="#e8e0d1" stroke="#2d2a27" stroke-opacity=".14"/>
  <path d="M570 72C751-8 874 145 1080 60M560 115c181-80 304 73 510-12M555 160c181-80 304 73 510-12M550 207c181-80 304 73 510-12M545 256c181-80 304 73 510-12M540 307c181-80 304 73 510-12" fill="none" stroke="#8d816c" stroke-opacity=".2" stroke-width="2"/>
  <text x="108" y="193" fill="#625f58" font-family="system-ui, sans-serif" font-size="22" font-weight="700" letter-spacing="4">GAMES SHAPED BY THE DOURO</text>
  <text x="104" y="301" fill="#2d2a27" font-family="Georgia, serif" font-size="76" font-weight="600" letter-spacing="-4">Small games,</text>
  <text x="104" y="384" fill="#2d2a27" font-family="Georgia, serif" font-size="76" font-weight="600" letter-spacing="-4">made with care.</text>
  <g transform="translate(838 155)">
    <rect width="210" height="210" rx="58" fill="#2d2a27"/>
    <path d="M0 150c40-46 66-16 98-52 27-32 56-45 112-35v44c-38-10-60 0-80 27-38 45-76 12-130 60v-44Z" fill="#7fa0a8"/>
    <rect x="48" y="242" width="150" height="27" rx="6" fill="#617f89"/>
    <rect x="68" y="278" width="110" height="27" rx="6" fill="#718064"/>
    <rect x="88" y="314" width="70" height="27" rx="6" fill="#8e5048"/>
  </g>
</svg>
